<svg width="1024" height="1024" viewBox="0 0 1024 1024" fill="none" xmlns="http://www.w3.org/2000/svg">
<rect width="1024" height="1024" fill="#192158"/>
<path d="M261.726 527.549C261.05 439.794 347.004 532.118 340.072 460.492C340.072 460.492 334.041 244.093 162.696 291.637C119.409 304.1 94.2707 319.948 56 352.264C160.498 343.015 188.003 371.891 199.276 432.688C199.276 432.688 221.652 644.406 337.591 750.096" fill="white"/>
<path d="M255.808 525.237C255.808 294.569 386.12 194.463 567.047 194.463C630.569 194.463 696.288 208.449 740.421 233.265L759.81 357.171C705.983 322.712 649.958 310.868 591.847 310.868C463.733 310.868 392.659 384.129 392.659 512.378C392.659 665.386 486.335 713.888 595.116 713.888C658.638 713.888 703.277 703.004 758.175 671.759L745.832 791.492C694.146 818.45 638.234 830.294 563.891 830.294C414.189 830.294 255.921 759.176 255.921 525.35" fill="white"/>
<mask id="mask0_36_7396" style="mask-type:luminance" maskUnits="userSpaceOnUse" x="255" y="194" width="505" height="637">
<path d="M255.808 525.237C255.808 759.063 414.077 830.181 563.778 830.181C638.065 830.181 694.034 818.338 745.719 791.379L758.063 671.646C703.165 702.891 658.525 713.776 595.003 713.776C486.222 713.776 392.546 665.273 392.546 512.266C392.546 384.073 463.62 310.755 591.79 310.755C649.958 310.755 705.926 322.599 759.753 357.058L740.364 233.152C696.232 208.393 630.512 194.35 566.991 194.35C386.064 194.35 255.752 294.456 255.752 525.124" fill="white"/>
</mask>
<g mask="url(#mask0_36_7396)">
<path d="M606.501 632.393C497.72 632.393 383.359 582.481 404.044 430.883C425.913 270.544 613.152 206.137 740.364 233.208C797.235 245.334 717.425 241.217 771.252 275.732L751.863 151.826C707.73 127.067 642.01 113.024 578.489 113.024C401.057 113.024 264.77 218.488 262.854 427.781C259.077 446.844 257.048 466.583 257.048 486.83C257.048 638.202 368.366 762.504 510.627 776.378C527.874 778.859 546.023 779.874 565.018 779.31C636.261 777.111 708.745 762.617 760.43 735.715L776.606 588.234C721.708 619.478 669.966 632.393 606.445 632.393" fill="#1D43FF"/>
</g>
</svg>
